<svg xmlns="http://www.w3.org/2000/svg" shape-rendering="geometricPrecision" text-rendering="geometricPrecision" image-rendering="optimizeQuality" fill-rule="evenodd" clip-rule="evenodd" viewBox="0 0 16 15.926" width="16" height="15.926"><path width="512" height="509.64" rx="115.61" ry="115.61" d="M3.613 0h8.774A3.612 3.612 0 0 1 16 3.613v8.701a3.612 3.612 0 0 1 -3.613 3.613H3.613A3.612 3.612 0 0 1 0 12.313V3.613A3.612 3.612 0 0 1 3.613 0"/><path fill="#fff" fill-rule="nonzero" d="M10.117 4.636h1.129l-2.466 2.819L11.681 11.29h-2.272l-1.779 -2.326 -2.036 2.326h-1.129l2.638 -3.015 -2.783 -3.639h2.329l1.608 2.126zm-0.396 5.979h0.625l-4.037 -5.338H5.638z"/></svg>
